<?xml version="1.0" encoding="utf-8"?>
<!-- Generator: Adobe Illustrator 25.2.0, SVG Export Plug-In . SVG Version: 6.00 Build 0)  -->
<svg version="1.1" id="Layer_1" xmlns="http://www.w3.org/2000/svg" xmlns:xlink="http://www.w3.org/1999/xlink" x="0px" y="0px"
	 viewBox="0 0 24 24" style="enable-background:new 0 0 24 24;" xml:space="preserve">
<style type="text/css">
	
		.st0{opacity:0.7;fill:#FFFFFF;stroke:#B3B3B3;stroke-width:0.8118;stroke-linecap:round;stroke-linejoin:round;stroke-miterlimit:10;}
</style>
<path class="st0" d="M16.4,12.4c0,0,0-1.3,0-2.3c0-0.7,0.6-1.3,1.3-1.3h0c0.7,0,1.3,0.6,1.3,1.3l0,2.5c0,3.4-0.6,5-1,5.7
	c-0.2,0.3-0.3,0.7-0.4,1.1c-0.3,1.6-1.7,2.8-3.4,2.8h-2.6c-1.7,0-3.1-1.2-3.4-2.8c-0.1-0.4-0.2-0.8-0.5-1.2l-3.6-5.7
	c-0.5-0.6-0.4-1.6,0.2-2.1l0,0c0.6-0.5,1.4-0.5,1.9,0l2.1,1.7c0,0,0-6.6,0-9.5c0-0.7,0.6-1.3,1.3-1.3h0c0.7,0,1.3,0.6,1.3,1.3l0,7.9
	V7.9c0-0.7,0.6-1.3,1.3-1.3h0c0.7,0,1.3,0.6,1.3,1.3v3.3V8.9c0-0.7,0.6-1.3,1.3-1.3h0c0.7,0,1.3,0.6,1.3,1.3V12.4z"/>
</svg>
