<?xml version="1.0" encoding="utf-8"?>
<!-- Generator: Adobe Illustrator 25.1.0, SVG Export Plug-In . SVG Version: 6.00 Build 0)  -->
<svg version="1.1" id="Livello_1" xmlns="http://www.w3.org/2000/svg" xmlns:xlink="http://www.w3.org/1999/xlink" x="0px" y="0px"
	 viewBox="0 0 1881.2 1750" style="enable-background:new 0 0 1881.2 1750;" xml:space="preserve">
<style type="text/css">
	.st0{fill:#939598;}
	.st1{fill:#808285;}
	.st2{fill:#77787B;}
	.st3{fill:#636466;}
	.st4{opacity:0.1;enable-background:new    ;}
	.st5{opacity:0.2;enable-background:new    ;}
	.st6{fill:#58595B;}
	.st7{fill:#FFFFFF;}
</style>
<path class="st0" d="M1801.1,0H517.7c-44.3,0-80.2,35.9-80.2,80.2l0,0v357.3l743.8,218.8l700-218.8V80.2
	C1881.2,35.9,1845.3,0,1801.1,0L1801.1,0z"/>
<path class="st1" d="M1881.2,437.5H437.5V875l743.8,131.2l700-131.2V437.5z"/>
<path class="st2" d="M437.5,875v437.5l700,87.5l743.8-87.5V875H437.5z"/>
<path class="st3" d="M517.7,1750h1283.4c44.3,0,80.2-35.9,80.2-80.2l0,0v-357.3H437.5v357.3C437.5,1714.1,473.4,1750,517.7,1750
	L517.7,1750z"/>
<path class="st4" d="M969.8,350H437.5v1093.8h532.3c44.2-0.1,80.1-36,80.2-80.2V430.2C1049.9,386,1014,350.1,969.8,350z"/>
<path class="st5" d="M926.1,393.8H437.5v1093.8h488.6c44.2-0.1,80-36,80.2-80.2V473.9C1006.1,429.7,970.3,393.9,926.1,393.8z"/>
<path class="st5" d="M926.1,393.8H437.5V1400h488.6c44.2-0.1,80-36,80.2-80.2V473.9C1006.1,429.7,970.3,393.9,926.1,393.8z"/>
<path class="st5" d="M882.3,393.8H437.5V1400h444.8c44.2-0.1,80-36,80.2-80.2V473.9C962.4,429.7,926.5,393.9,882.3,393.8z"/>
<path class="st6" d="M80.2,393.8h802.1c44.3,0,80.2,35.9,80.2,80.2v802.1c0,44.3-35.9,80.2-80.2,80.2H80.2
	c-44.3,0-80.2-35.9-80.2-80.2V473.9C0,429.7,35.9,393.8,80.2,393.8z"/>
<path class="st7" d="M329.1,1008.8c1.6,12.4,2.6,23.1,3.1,32.4h1.8c0.7-8.8,2.2-19.3,4.4-31.6c2.2-12.3,4.2-22.8,6-31.3l84.4-363.9
	h109.1l87.5,358.4c5.1,22.3,8.7,44.9,10.9,67.6h1.4c1.6-22,4.7-44,9.1-65.6l69.8-360.6h99.3l-122.6,521.5h-116l-83.1-345.4
	c-2.4-9.9-5.2-22.9-8.2-38.9s-4.9-27.7-5.6-35h-1.4c-1,8.5-2.8,21.1-5.6,37.8c-2.8,16.7-5,29.1-6.7,37.1l-78.1,344.3h-118
	L147.1,614.3h101.1l76,364.7C325.9,986.5,327.5,996.5,329.1,1008.8z"/>
</svg>
